<svg id="visual" viewBox="0 0 900 450" width="900" height="450" xmlns="http://www.w3.org/2000/svg" xmlns:xlink="http://www.w3.org/1999/xlink" version="1.1"><rect x="0" y="0" width="900" height="450" fill="#001220"></rect><path d="M0 313L21.5 306.8C43 300.7 86 288.3 128.8 291.3C171.7 294.3 214.3 312.7 257.2 310.5C300 308.3 343 285.7 385.8 279.5C428.7 273.3 471.3 283.7 514.2 283.5C557 283.3 600 272.7 642.8 277.8C685.7 283 728.3 304 771.2 309.7C814 315.3 857 305.7 878.5 300.8L900 296L900 451L878.5 451C857 451 814 451 771.2 451C728.3 451 685.7 451 642.8 451C600 451 557 451 514.2 451C471.3 451 428.7 451 385.8 451C343 451 300 451 257.2 451C214.3 451 171.7 451 128.8 451C86 451 43 451 21.5 451L0 451Z" fill="#678983"></path><path d="M0 315L21.5 322.3C43 329.7 86 344.3 128.8 348.2C171.7 352 214.3 345 257.2 338.5C300 332 343 326 385.8 325.3C428.7 324.7 471.3 329.3 514.2 333C557 336.7 600 339.3 642.8 343C685.7 346.7 728.3 351.3 771.2 350.7C814 350 857 344 878.5 341L900 338L900 451L878.5 451C857 451 814 451 771.2 451C728.3 451 685.7 451 642.8 451C600 451 557 451 514.2 451C471.3 451 428.7 451 385.8 451C343 451 300 451 257.2 451C214.3 451 171.7 451 128.8 451C86 451 43 451 21.5 451L0 451Z" fill="#839f90"></path><path d="M0 368L21.5 366.3C43 364.7 86 361.3 128.8 357.3C171.7 353.3 214.3 348.7 257.2 351.2C300 353.7 343 363.3 385.8 365.2C428.7 367 471.3 361 514.2 355.2C557 349.3 600 343.7 642.8 343.8C685.7 344 728.3 350 771.2 353.8C814 357.7 857 359.3 878.5 360.2L900 361L900 451L878.5 451C857 451 814 451 771.2 451C728.3 451 685.7 451 642.8 451C600 451 557 451 514.2 451C471.3 451 428.7 451 385.8 451C343 451 300 451 257.2 451C214.3 451 171.7 451 128.8 451C86 451 43 451 21.5 451L0 451Z" fill="#a2b49e"></path><path d="M0 384L21.5 384.7C43 385.3 86 386.7 128.8 388.2C171.7 389.7 214.3 391.3 257.2 391.8C300 392.3 343 391.7 385.8 391C428.7 390.3 471.3 389.7 514.2 388.5C557 387.3 600 385.7 642.8 387.3C685.7 389 728.3 394 771.2 397.5C814 401 857 403 878.5 404L900 405L900 451L878.5 451C857 451 814 451 771.2 451C728.3 451 685.7 451 642.8 451C600 451 557 451 514.2 451C471.3 451 428.7 451 385.8 451C343 451 300 451 257.2 451C214.3 451 171.7 451 128.8 451C86 451 43 451 21.5 451L0 451Z" fill="#c4c9af"></path><path d="M0 411L21.5 411.8C43 412.7 86 414.3 128.8 411.8C171.7 409.3 214.3 402.7 257.2 403.3C300 404 343 412 385.8 417.2C428.7 422.3 471.3 424.7 514.2 425.7C557 426.7 600 426.3 642.8 425.8C685.7 425.3 728.3 424.7 771.2 424.3C814 424 857 424 878.5 424L900 424L900 451L878.5 451C857 451 814 451 771.2 451C728.3 451 685.7 451 642.8 451C600 451 557 451 514.2 451C471.3 451 428.7 451 385.8 451C343 451 300 451 257.2 451C214.3 451 171.7 451 128.8 451C86 451 43 451 21.5 451L0 451Z" fill="#e6ddc4"></path></svg>